/* XPM */
static char * C:\studio_git\studio\framework_uc\plugins\com_silabs_uc_cli_product\product_icons\uc_xpm[] = {
"64 64 18 1",
" 	c None",
".	c #FFFFFF",
"+	c #FFFBF0",
"@	c #FFBFAA",
"#	c #FFBF55",
"$	c #FFDFAA",
"%	c #800000",
"&	c #FF9F55",
"*	c #000000",
"=	c #7F9FAA",
"-	c #008000",
";	c #559FAA",
">	c #557FAA",
",	c #7FBFFF",
"'	c #D4DFFF",
")	c #2A7FAA",
"!	c #A6CAF0",
"~	c #7F9FFF",
"   .+.                                                          ",
"   @##$%..%                                                     ",
"   #@@%++++$#&#$+$$                                             ",
"   #$ *+.*$&&&+@&&&&@$                                          ",
"   #@&.+%+&&#$#&&&&&&&@+                                        ",
" .$@#=.+%$&&+$&&&##&&&&#+                                       ",
"$##+#*.+%$&&-#&&@#&$#&&&&+                                      ",
"#@.;#@.+%$&#+&&&++#&&$&&&&$                                     ",
"@#@*$@%+.$&#$&&#>;+#&&$&&&&+                                    ",
".$####%++$&#$&&#>>>+&&&+&&&&+                                   ",
"  .,''-++$&&$&&#>>>>+&@++&&&&+                                  ",
"   %*+%.+$&&$&&#>>>>$%+++$&&&#+                                 ",
" %.++.-%++&&$&&#)>>>$-!>))$&&&@                                 ",
"%+++.%$)++#&$&&#))>;+;)))))@&&&+                                ",
"++.-  $=.+@&+&&&>$,$=)))))))@$++                                ",
"++-    >#+$&&&&&+!-'))))))))))'+$+                              ",
"++.%   $+.+&&#&&$;)!)))))))))+!;)))=!$$                         ",
"%+++.+@##%+#&@&&@=)'>+!~))))'))))))));+&#$+                     ",
" -.$#&&&$%*$&$&&#  %##%*';)'))))))))));+&&&@+                   ",
" +#&&&&@++,+&+&&&+~)))>!++.>)))))))))))~#&&&&@                  ",
"+&&&#$+@%')+#&#&&$),;=!';-!)))))))))))))'+@&&&#+                ",
"#&&$   )>+)!$&@&&@),)));)!=)))))))))))))!  &##$$$               ",
"&&$    $>>$$+&$&&&)')))=)),;;>))))))))))!  &&&&&&&#@$+          ",
"&&$    $@&&@'@&&&&$)>))!))' '>'!))))))))!  $$#&&&&&&&&#$+       ",
"#&&++$#&&&&+!+&@&&@),)!)))' ))))+=))))))!   +#$#&&&&&&&&&@$     ",
"$&&$&&&&&&& '!#$&&&)''))'!;;;~!))),)))))' +'&&&$ +$@#&&&&&&#+   ",
" +#&&&&&@$   ;'&&&&$)))!)))))));'))~)))>+$,))!+      +@#&&&&&$  ",
" #&&&&$+&#$$+;,+@&&#!,~))))))))))' +>))'&+))))>'        $#&&&&@ ",
"$&&&#+#&&&&&&;)@+&&&+.)))))))))))>#&!)!&&!))))))+         $&&&&$",
"&&&@   +$#&&&,)!&#&&@&,)))))))))))!&+'#@')))))))~          +#&&#",
"&&&+       +$');&$&&&+')))))))))));$$+ !)))))))))+          +&&&",
"&&&+       !!'=)'+&&&$$=)))))))))))  +,))))))))))'          +&&&",
"#&&#+      ;))+;~ $&&#'')))))))))))  !)))))))))))!          @&&&",
"$&&&&$     ,)))+,'+&&&$);))))))))))  ,)))))))))))!        +#&&&$",
" @&&&&#$   '))))); @&&#!')))))))))=  ;)))))))))))'      +$&&&&# ",
"  $&&&&&#@+ !)))))!+&&&$;;))))))))!+ '~)))))));~!+    $@&&&&&#+ ",
"   +#&&&&&&#@$+))); +$$$+';;;;;;;=&$   +!!''+     +$#&&&&&&&$   ",
"     $@&&&&&&&&&#$$$+#&&$'))))'  &&$        +$$@#&&&&&&&&#$+    ",
"       +$#&&&&&&&&&&&&###$$$$$$$$$$$$$$@###&&&&&&&&&&&&@$       ",
"          +$@#&&&&&&&&&&&&&&&&&&&&&&&&&&&&&&&&&&&&&#$$          ",
"               $$$##&&&&&&&&&&&&&&&&&&&&&&&&&##$$+              ",
"                     +$$$$$$@#######$$$$$$$+                    ",
"               );~!!'+   @&&&$  +&&$        ++                  ",
"               )))))))' @##@&&!!!!!!!=;;;)' $&                  ",
"               ;)))))); $&&&$&,)))))))))))!  &$                 ",
"               !)))))))! #&&&++;))))))))))! +&$                 ",
"                ;))))))>++&&&# '))))))))))' $&#                 ",
"                +;)))))), $&&&$ !))))))))>  @&#                 ",
"                 +,))))))' #&&&+ =)))))))!  #&&                 ",
"                   +!!!!'  +&&&#++;)))))~   #&&$                ",
"                            $&&&# ')))),    #&&$                ",
"                             $&&&@ ';~'     @&&$                ",
"                              #&&&$         $&&$                ",
"                              +#&&&$        $&&$                ",
"                               +&&&&$       $&&$                ",
"                                +&&&&$      #&&$                ",
"                                 +&&&&@+    &&&$                ",
"                                  +&&&&#$  $&&&                 ",
"                                   +#&&&&&#&&&@                 ",
"                                     $&&&&&&&#+                 ",
"                                      +@&&&&#+                  ",
"                                         $$+                    ",
"                                                                ",
"                                                                "};
